<svg width="92" height="22" viewBox="0 0 92 22" fill="none" xmlns="http://www.w3.org/2000/svg">
<path d="M18.4938 17V4.4H20.9058L26.2698 13.292H24.9918L30.2658 4.4H32.6598L32.6958 17H29.9598L29.9418 8.594H30.4458L26.2338 15.668H24.9198L20.6178 8.594H21.2298V17H18.4938ZM41.8052 17.216C40.8092 17.216 39.8852 17.054 39.0332 16.73C38.1932 16.406 37.4612 15.95 36.8372 15.362C36.2252 14.774 35.7452 14.084 35.3972 13.292C35.0612 12.5 34.8932 11.636 34.8932 10.7C34.8932 9.764 35.0612 8.9 35.3972 8.108C35.7452 7.316 36.2312 6.626 36.8552 6.038C37.4792 5.45 38.2112 4.994 39.0512 4.67C39.8912 4.346 40.8032 4.184 41.7872 4.184C42.7832 4.184 43.6952 4.346 44.5232 4.67C45.3632 4.994 46.0892 5.45 46.7012 6.038C47.3252 6.626 47.8112 7.316 48.1592 8.108C48.5072 8.888 48.6812 9.752 48.6812 10.7C48.6812 11.636 48.5072 12.506 48.1592 13.31C47.8112 14.102 47.3252 14.792 46.7012 15.38C46.0892 15.956 45.3632 16.406 44.5232 16.73C43.6952 17.054 42.7892 17.216 41.8052 17.216ZM41.7872 14.732C42.3512 14.732 42.8672 14.636 43.3352 14.444C43.8152 14.252 44.2352 13.976 44.5952 13.616C44.9552 13.256 45.2312 12.83 45.4232 12.338C45.6272 11.846 45.7292 11.3 45.7292 10.7C45.7292 10.1 45.6272 9.554 45.4232 9.062C45.2312 8.57 44.9552 8.144 44.5952 7.784C44.2472 7.424 43.8332 7.148 43.3532 6.956C42.8732 6.764 42.3512 6.668 41.7872 6.668C41.2232 6.668 40.7012 6.764 40.2212 6.956C39.7532 7.148 39.3392 7.424 38.9792 7.784C38.6192 8.144 38.3372 8.57 38.1332 9.062C37.9412 9.554 37.8452 10.1 37.8452 10.7C37.8452 11.288 37.9412 11.834 38.1332 12.338C38.3372 12.83 38.6132 13.256 38.9612 13.616C39.3212 13.976 39.7412 14.252 40.2212 14.444C40.7012 14.636 41.2232 14.732 41.7872 14.732ZM54.2484 17L48.8124 4.4H51.9624L56.7144 15.56H54.8604L59.6844 4.4H62.5824L57.1284 17H54.2484ZM63.6344 17V4.4H66.5504V17H63.6344ZM72.2227 9.476H78.2887V11.744H72.2227V9.476ZM72.4387 14.66H79.2967V17H69.5407V4.4H79.0627V6.74H72.4387V14.66ZM85.7569 17.216C84.7489 17.216 83.7829 17.084 82.8589 16.82C81.9349 16.544 81.1909 16.19 80.6269 15.758L81.6169 13.562C82.1569 13.946 82.7929 14.264 83.5249 14.516C84.2689 14.756 85.0189 14.876 85.7749 14.876C86.3509 14.876 86.8129 14.822 87.1609 14.714C87.5209 14.594 87.7849 14.432 87.9529 14.228C88.1209 14.024 88.2049 13.79 88.2049 13.526C88.2049 13.19 88.0729 12.926 87.8089 12.734C87.5449 12.53 87.1969 12.368 86.7649 12.248C86.3329 12.116 85.8529 11.996 85.3249 11.888C84.8089 11.768 84.2869 11.624 83.7589 11.456C83.2429 11.288 82.7689 11.072 82.3369 10.808C81.9049 10.544 81.5509 10.196 81.2749 9.764C81.0109 9.332 80.8789 8.78 80.8789 8.108C80.8789 7.388 81.0709 6.734 81.4549 6.146C81.8509 5.546 82.4389 5.072 83.2189 4.724C84.0109 4.364 85.0009 4.184 86.1889 4.184C86.9809 4.184 87.7609 4.28 88.5289 4.472C89.2969 4.652 89.9749 4.928 90.5629 5.3L89.6629 7.514C89.0749 7.178 88.4869 6.932 87.8989 6.776C87.3109 6.608 86.7349 6.524 86.1709 6.524C85.6069 6.524 85.1449 6.59 84.7849 6.722C84.4249 6.854 84.1669 7.028 84.0109 7.244C83.8549 7.448 83.7769 7.688 83.7769 7.964C83.7769 8.288 83.9089 8.552 84.1729 8.756C84.4369 8.948 84.7849 9.104 85.2169 9.224C85.6489 9.344 86.1229 9.464 86.6389 9.584C87.1669 9.704 87.6889 9.842 88.2049 9.998C88.7329 10.154 89.2129 10.364 89.6449 10.628C90.0769 10.892 90.4249 11.24 90.6889 11.672C90.9649 12.104 91.1029 12.65 91.1029 13.31C91.1029 14.018 90.9049 14.666 90.5089 15.254C90.1129 15.842 89.5189 16.316 88.7269 16.676C87.9469 17.036 86.9569 17.216 85.7569 17.216Z" fill="white"/>
<path d="M14.2346 13.8517L8.17641 10.7979L14.1161 7.51946L14.2346 13.8517Z" stroke="#F8F8F8" stroke-width="2" stroke-linecap="round" stroke-linejoin="round"/>
</svg>
